# AST/ASF file generated using VICON BodyLanguage
# -----------------------------------------------
:version 1.10
:name VICON
:units
  mass 1.0
  length 0.45
  angle deg
:documentation
   .ast/.asf automatically generated from VICON data using
   VICON BodyBuilder and BodyLanguage model FoxedUp or BRILLIANT.MOD
:root
   order TX TY TZ RX RY RZ
   axis XYZ
   position 0 0 0  
   orientation 0 0 0 
:bonedata
  begin
     id 1 
     name lhipjoint
     direction 0.566809 -0.746272 0.349008 
     length 2.40479 
     axis 0 0 0  XYZ
  end
  begin
     id 2 
     name lfemur
     direction 0.34202 -0.939693 0  
     length 7.1578  
     axis 0 0 20  XYZ
    dof rx ry rz
    limits (-160.0 20.0)
           (-70.0 70.0)
           (-60.0 70.0)
  end
  begin
     id 3 
     name ltibia
     direction 0.34202 -0.939693 0   
     length 7.49137   
     axis 0 0 20   XYZ
    dof rx
    limits (-10.0 170.0)
  end
  begin
     id 4 
     name lfoot
     direction 0.0665746 -0.182912 0.980873   
     length 2.36784   
     axis -90 7.62852e-016 20   XYZ
    dof rx rz
    limits (-45.0 90.0)
           (-70.0 20.0)
  end
  begin
     id 5 
     name ltoes
     direction 1.53601e-011 -4.22058e-011 1   
     length 1.18966   
     axis -90 7.62852e-016 20   XYZ
    dof rx
    limits (-90.0 20.0)
  end
  begin
     id 6 
     name rhipjoint
     direction -0.550236 -0.756381 0.353735   
     length 2.37265  
     axis 0 0 0  XYZ 
  end
  begin
     id 7 
     name rfemur
     direction -0.34202 -0.939693 0   
     length 7.43386   
     axis 0 0 -20   XYZ
    dof rx ry rz
    limits (-160.0 20.0)
           (-70.0 70.0)
           (-70.0 60.0)
  end
  begin
     id 8 
     name rtibia
     direction -0.34202 -0.939693 0   
     length 7.50908   
     axis 0 0 -20   XYZ
    dof rx
    limits (-10.0 170.0)
 end
 begin
     id 9 
     name rfoot
     direction -0.0683029 -0.187661 0.979856   
     length 2.41173  
     axis -90 -7.62852e-016 -20   XYZ
    dof rx rz
    limits (-45.0 90.0)
           (-20.0 70.0)
  end
  begin
     id 10 
     name rtoes
     direction -1.53528e-011 -4.21968e-011 1   
     length 1.21082   
     axis -90 -7.62852e-016 -20   XYZ
    dof rx
    limits (-90.0 20.0)
  end
  begin
     id 11 
     name lowerback
     direction 0.013823 0.995423 -0.0945635   
     length 2.04495   
     axis 0 0 0   XYZ
    dof rx ry rz
    limits (-20.0 45.0)
           (-30.0 30.0)
           (-30.0 30.0)
  end
  begin
     id 12 
     name upperback
     direction 0.0276657 0.9994 -0.020853   
     length 2.05008   
     axis 0 0 0   XYZ
    dof rx ry rz
    limits (-20.0 45.0)
           (-30.0 30.0)
           (-30.0 30.0)
  end
  begin
     id 13 
     name thorax
     direction 0.019782 0.999531 0.0233827   
     length 2.06488   
     axis 0 0 0   XYZ
    dof rx ry rz
    limits (-20.0 45.0)
           (-30.0 30.0)
           (-30.0 30.0)
  end
  begin
     id 14 
     name lowerneck
     direction -0.0308541 0.994709 0.0979874   
     length 1.75553   
     axis 0 0 0   XYZ
    dof rx ry rz
    limits (-20.0 45.0)
           (-30.0 30.0)
           (-30.0 30.0)
  end
  begin
     id 15 
     name upperneck
     direction 0.0588398 0.995804 -0.0700903   
     length 1.76878   
     axis 0 0 0   XYZ
    dof rx ry rz
    limits (-20.0 45.0)
           (-30.0 30.0)
           (-30.0 30.0)
  end
  begin
     id 16
     name head
     direction 0.0209966 0.999159 -0.0352225  
     length 1.77193  
     axis 0 0 0   XYZ
    dof rx ry rz
    limits (-20.0 45.0)
           (-30.0 30.0)
           (-30.0 30.0)
  end
  begin
     id 17 
     name lclavicle
     direction 0.938182 0.335073 -0.0868338  
     length 3.58396  
     axis 0 0 0   XYZ
    dof ry rz
    limits (-20.0 10.0)
           (0.0 20.0)
  end
  begin
     id 18 
     name lhumerus
     direction 1 -4.48971e-011 -1.26313e-017   
     length 4.983   
     axis 180 -30 -90   XYZ
    dof rx ry rz
    limits (-60.0 90.0)
           (-90.0 90.0)
           (-90.0 90.0)
  end
  begin
     id 19
     name lradius
     direction 1 -4.48948e-011 -5.89033e-027   
     length 3.48356   
     axis 180 -30 -90   XYZ
    dof rx
    limits (-10.0 170.0)
  end
  begin
     id 20
     name lwrist
     direction 1 -4.48977e-011 -1.48983e-026   
     length 1.74178   
     axis 9.0955e-015 90 90   XYZ
    dof ry
    limits (-180.0 0.0)
 end
  begin
     id 21 
     name lhand
     direction 1 -4.49046e-011 -2.98066e-026   
     length 0.715259   
     axis 1.90115e-014 90 90   XYZ
    dof rx rz
    limits (-90.0 90.0)
           (-45.0 45.0)
  end
  begin
     id 22 
     name lfingers
     direction 1 -4.48907e-011 -5.95731e-026   
     length 0.576661   
     axis 3.80223e-014 90 90   XYZ
    dof rx
    limits (0.0 90.0)
  end
  begin
     id 23
     name lthumb
     direction 0.707107 -6.34963e-011 0.707107   
     length 0.827973   
     axis -90 45 -3.84942e-014   XYZ
    dof rx rz
    limits (-45.0 45.0)
           (-45.0 45.0)
  end
  begin
     id 24 
     name rclavicle
     direction -0.909637 0.398485 -0.11735   
     length 3.44819  
     axis 0 0 0   XYZ 
    dof ry rz
    limits (-10.0 20.0)
           (-20.0 0.0)
  end
  begin
     id 25 
     name rhumerus
     direction -1 -4.48978e-011 -1.09333e-027  
     length 5.2419   
     axis 180 30 90   XYZ
    dof rx ry rz
    limits (-90.0 60.0)
           (-90.0 90.0)
           (-90.0 90.0)
  end
  begin
     id 26 
     name rradius
     direction -1 -4.48953e-011 -7.61841e-027   
     length 3.44417   
     axis 180 30 90   XYZ
    dof rx
    limits (-10.0 170.0)
  end
  begin
     id 27 
     name rwrist
     direction -1 -4.48977e-011 -1.48983e-026   
     length 1.72209   
     axis 9.0955e-015 -90 -90   XYZ
    dof ry
    limits (-180.0 0.0)
  end
  begin
     id 28
     name rhand
     direction -1 -4.49027e-011 -2.98038e-026   
     length 0.622529   
     axis 1.90115e-014 -90 -90   XYZ
    dof rx rz
    limits (-90.0 90.0)
           (-45.0 45.0)
  end
  begin
     id 29
     name rfingers
     direction -1 -4.48838e-011 -5.95531e-026   
     length 0.501899   
     axis 3.80223e-014 -90 -90   XYZ
    dof rx
    limits (0.0 90.0)
  end
  begin
     id 30
     name rthumb
     direction -0.707107 -6.34937e-011 0.707107   
     length 0.720629   
     axis -90 -45 3.84942e-014   XYZ
    dof rx rz
    limits (-45.0 45.0)
           (-45.0 45.0)
  end
:hierarchy
  begin
    root lhipjoint rhipjoint lowerback
    lhipjoint lfemur
    lfemur ltibia
    ltibia lfoot
    lfoot ltoes
    rhipjoint rfemur
    rfemur rtibia
    rtibia rfoot
    rfoot rtoes
    lowerback upperback
    upperback thorax
    thorax lowerneck lclavicle rclavicle
    lowerneck upperneck
    upperneck head
    lclavicle lhumerus
    lhumerus lradius
    lradius lwrist
    lwrist lhand lthumb
    lhand lfingers
    rclavicle rhumerus
    rhumerus rradius
    rradius rwrist
    rwrist rhand rthumb
    rhand rfingers
  end

#!OML:ASF F:\VICON\USERDATA\Patient Classification 1\PLAYGROUND\JustinFriday\JustinFriday.ASF
:FULLY-SPECIFIED
:DEGREES
303
root 40.0067 18.8144 -4.44123 177.017 -41.4027 -159.232
lowerback 21.636 2.16525 4.59565
upperback 5.27354 3.27182 1.7433
thorax -6.13123 1.24612 -1.55674
lowerneck -7.52342 3.5947 -6.69618
upperneck -11.9247 4.84902 3.19649
head -2.83432 2.37476 2.20322
rclavicle 6.44062e-014 -7.15625e-014
rhumerus -18.3131 10.401 -84.5897
rradius 69.7337
rwrist -14.3397
rhand -19.2093 -21.1138
rfingers 7.12502
rthumb 7.1031 -50.9746
lclavicle 6.44062e-014 -7.15625e-014
lhumerus 37.4398 20.3222 63.335
lradius 50.5028
lwrist -32.3418
lhand -30.5265 -15.9917
lfingers 7.12502
lthumb -3.8259 13.9537
rfemur 1.04543 -10.7591 39.9423
rtibia 6.14033
rfoot -6.67332 -26.1414
rtoes 11.6169
lfemur -80.3046 18.1169 -21.2745
ltibia 95.8244
lfoot -30.4985 6.52041
ltoes 21.6811
304
root 39.952 18.846 -4.51465 177.144 -41.9857 -159.636
lowerback 21.9126 2.31444 4.19844
upperback 5.21915 3.39447 1.57653
thorax -6.34338 1.30774 -1.55619
lowerneck -8.20914 3.3687 -7.30367
upperneck -11.3482 4.69616 4.09138
head -2.56062 2.31274 2.63088
rclavicle -9.54166e-015 -5.80451e-014
rhumerus -18.1713 10.964 -84.8174
rradius 70.2409
rwrist -13.8735
rhand -18.5302 -20.8531
rfingers 7.12502
rthumb 7.75861 -50.6908
lclavicle -9.54166e-015 -5.80451e-014
lhumerus 36.737 19.3416 63.4176
lradius 51.9649
lwrist -31.8121
lhand -30.4038 -14.2324
lfingers 7.12502
lthumb -3.70746 15.7151
rfemur 1.6532 -10.8762 39.5077
rtibia 5.52025
rfoot -5.65482 -26.5646
rtoes 11.0379
lfemur -79.3543 17.7106 -21.1582
ltibia 95.6567
lfoot -31.1885 4.66756
ltoes 24.7871
305
root 39.8952 18.8825 -4.58093 177.412 -42.5942 -159.915
lowerback 22.0796 2.36123 3.97904
upperback 5.05489 3.4314 1.36267
thorax -6.60885 1.33025 -1.68443
lowerneck -6.33412 3.38587 -6.18043
upperneck -13.4816 4.42587 3.0352
head -3.54231 2.12525 2.04761
rclavicle 1.74931e-014 -6.36111e-015
rhumerus -18.0221 11.644 -85.2184
rradius 70.5804
rwrist -12.6506
rhand -18.1993 -20.1465
rfingers 7.12502
rthumb 8.07799 -49.9722
lclavicle 1.74931e-014 -6.36111e-015
lhumerus 37.1713 19.4823 65.0114
lradius 52.3437
lwrist -33.3628
lhand -29.9942 -13.2279
lfingers 7.12502
lthumb -3.31185 16.7261
rfemur 2.14511 -10.9481 39.2181
rtibia 4.55323
rfoot -4.0503 -27.1617
rtoes 9.01718
lfemur -78.7499 17.2341 -21.1436
ltibia 95.4409
lfoot -31.8631 3.24346
ltoes 27.299
306
root 39.8303 18.9117 -4.6428 177.496 -43.0973 -159.796
lowerback 21.9813 2.44537 4.0642
upperback 4.98882 3.5684 1.32112
thorax -6.61426 1.40009 -1.81157
lowerneck -6.98618 3.22502 -6.6525
upperneck -13.1014 4.31621 3.6196
head -3.32107 2.08002 2.34169
rclavicle -2.3059e-014 4.85035e-014
rhumerus -17.712 12.2872 -85.477
rradius 70.974
rwrist -11.517
rhand -17.6631 -19.5706
rfingers 7.12502
rthumb 8.5955 -49.3756
lclavicle -2.3059e-014 4.85035e-014
lhumerus 37.4864 19.4896 66.6438
lradius 52.8621
lwrist -35.5158
lhand -30.6265 -16.5552
lfingers 7.12502
lthumb -3.92251 13.3884
rfemur 2.94605 -10.9041 39.2134
rtibia 2.82899
rfoot -2.62678 -27.8217
rtoes 7.06618
lfemur -78.2498 16.9052 -21.0398
ltibia 95.2558
lfoot -32.6579 2.48755
ltoes 28.503
307
root 39.7638 18.9365 -4.70819 177.67 -43.522 -159.875
lowerback 21.7377 2.63454 3.88017
upperback 5.04988 3.76411 1.34886
thorax -6.42517 1.50427 -1.71648
lowerneck -7.92589 3.01767 -7.41192
upperneck -12.6954 4.17305 4.25313
head -3.05043 2.03021 2.71135
rclavicle 5.96354e-014 -7.79236e-014
rhumerus -17.2358 13.1549 -85.4866
rradius 71.5969
rwrist -11.2341
rhand -18.4821 -19.13
rfingers 7.12502
rthumb 7.80504 -48.9659
lclavicle 5.96354e-014 -7.79236e-014
lhumerus 36.7803 18.3122 66.91
lradius 54.139
lwrist -34.7643
lhand -32.7545 -23.8818
lfingers 7.12502
lthumb -5.97722 6.01384
rfemur 4.40102 -10.79 39.052
rtibia -3.18055e-015
rfoot -1.39347 -28.6131
rtoes 7.69811
lfemur -77.7225 16.6347 -21.7119
ltibia 94.3151
lfoot -32.4282 6.70803
ltoes 20.1406
308
root 39.703 19.0015 -4.77325 177.653 -44.049 -159.737
lowerback 21.6984 2.72972 3.87635
upperback 5.03165 3.89058 1.32029
thorax -6.41621 1.56831 -1.77671
lowerneck -6.41868 3.03829 -6.40667
upperneck -14.8319 3.89738 3.12676
head -3.9951 1.84138 2.13852
rclavicle -5.48646e-014 9.14409e-014
rhumerus -16.798 14.09 -85.6114
rradius 72.2474
rwrist -11.1127
rhand -20.5054 -18.734
rfingers 7.12502
rthumb 5.85187 -48.6332
lclavicle -5.48646e-014 9.14409e-014
lhumerus 35.5014 16.8226 66.2756
lradius 55.8083
lwrist -33.1574
lhand -32.7788 -18.7724
lfingers 7.12502
lthumb -6.00065 11.1226
rfemur 4.36871 -10.8016 39.0252
rtibia -2.22639e-014
rfoot -1.69115 -29.1984
rtoes 9.5156
lfemur -76.8126 16.2464 -20.5769
ltibia 94.5127
lfoot -34.1759 0.104435
ltoes 31.2589
309
root 39.6443 19.0498 -4.84076 177.751 -44.6337 -159.783
lowerback 21.8321 2.82602 3.77335
upperback 4.9316 4.01161 1.25223
thorax -6.59151 1.62768 -1.83341
lowerneck -7.12944 2.79262 -7.06109
upperneck -14.4483 3.70776 3.90879
head -3.76195 1.75924 2.53723
rclavicle -3.65764e-014 -6.36111e-015
rhumerus -16.4627 14.9907 -85.8208
rradius 72.7058
rwrist -11.005
rhand -22.3959 -18.0375
rfingers 7.12502
rthumb 4.02644 -47.9792
lclavicle -3.65764e-014 -6.36111e-015
lhumerus 36.0903 16.3949 68.0693
lradius 55.6919
lwrist -33.4843
lhand -34.256 -19.954
lfingers 7.12502
lthumb -7.42668 9.8956
rfemur 4.34318 -10.8674 38.8357
rtibia 6.36111e-015
rfoot -0.860203 -29.6586
rtoes 8.96141
lfemur -75.8954 15.854 -20.5351
ltibia 93.5751
lfoot -34.5383 -0.672778
ltoes 31.9284
310
root 39.5829 19.0948 -4.91487 177.919 -45.1321 -159.973
lowerback 21.8963 2.94036 3.42894
upperback 4.86004 4.10166 1.25584
thorax -6.7255 1.67686 -1.66498
lowerneck -7.34233 2.64895 -7.5423
upperneck -14.5491 3.56839 4.24755
head -3.77771 1.70203 2.75047
rclavicle 2.22639e-014 5.1684e-014
rhumerus -16.0408 16.1124 -86.0574
rradius 72.9894
rwrist -11.418
rhand -24.276 -16.4113
rfingers 7.12502
rthumb 2.21079 -46.3796
lclavicle 2.22639e-014 5.1684e-014
lhumerus 36.6856 17.8525 70.5745
lradius 54.2919
lwrist -33.788
lhand -34.3569 -36.3969
lfingers 7.12502
lthumb -7.52411 -6.55068
rfemur 4.40604 -10.8594 38.5334
rtibia -6.36111e-015
rfoot -0.209573 -30.1804
rtoes 9.41795
lfemur -75.0583 15.7465 -21.2455
ltibia 92.5989
lfoot -34.8827 2.29861
ltoes 26.6227
311
root 39.5239 19.1315 -4.99458 177.856 -45.5924 -159.856
lowerback 21.9283 2.99055 3.19333
upperback 4.81494 4.12735 1.27805
thorax -6.81042 1.69384 -1.51845
lowerneck -7.07592 2.66112 -7.33592
upperneck -15.5305 3.54454 4.19145
head -3.71541 1.65183 2.47892
rclavicle -2.62396e-014 3.65764e-014
rhumerus -15.3357 16.9926 -86.3664
rradius 73.3407
rwrist -11.1253
rhand -24.324 -15.7744
rfingers 7.12502
rthumb 2.1644 -45.7432
lclavicle -2.62396e-014 3.65764e-014
lhumerus 35.9526 17.3621 70.7287
lradius 55.2982
lwrist -33.5817
lhand -34.5992 -38.8846
lfingers 7.12502
lthumb -7.75795 -9.04688
rfemur 4.51045 -10.8274 38.4816
rtibia 0
rfoot -1.01445 -30.9043
rtoes 12.4772
lfemur -74.3662 15.7857 -22.0566
ltibia 91.0642
lfoot -33.456 9.82724
ltoes 11.6163
312
root 39.4694 19.2317 -5.06057 177.837 -45.8975 -159.783
lowerback 22.0981 3.14086 3.0372
upperback 4.71919 4.30181 1.20948
thorax -7.00314 1.77818 -1.56316
lowerneck -7.07374 2.55785 -7.02363
upperneck -15.8367 3.36394 4.07636
head -3.7905 1.54166 2.39637
rclavicle 1.27222e-014 -7.15625e-015
rhumerus -14.6424 17.2935 -86.6388
rradius 73.8463
rwrist -9.65177
rhand -22.5112 -16.5925
rfingers 7.12502
rthumb 3.91518 -46.5362
lclavicle 1.27222e-014 -7.15625e-015
lhumerus 35.1983 16.599 70.9107
lradius 56.2539
lwrist -33.1025
lhand -34.7093 -40.6978
lfingers 7.12502
lthumb -7.86416 -10.864
rfemur 4.51657 -10.6447 38.3719
rtibia -3.18055e-015
rfoot -0.988719 -31.5929
rtoes 13.4174
lfemur -73.1931 15.7594 -20.54
ltibia 91.4559
lfoot -36.0789 -1.16903
ltoes 31.3888
313
root 39.4115 19.2981 -5.12962 177.719 -46.1131 -159.746
lowerback 22.3903 3.3785 2.85602
upperback 4.65409 4.58295 1.20111
thorax -7.22929 1.90995 -1.56445
lowerneck -7.09597 2.41606 -6.99802
upperneck -16.1146 3.15612 4.06431
head -3.85927 1.43119 2.39377
rclavicle -1.43125e-014 2.8625e-014
rhumerus -14.0706 17.766 -86.6949
rradius 74.3664
rwrist -8.57685
rhand -21.6785 -16.699
rfingers 7.12502
rthumb 4.71923 -46.6265
lclavicle -1.43125e-014 2.8625e-014
lhumerus 34.5385 15.8465 71.4356
lradius 57.068
lwrist -32.9981
lhand -34.6625 -41.2781
lfingers 7.12502
lthumb -7.81903 -11.4427
rfemur 4.7072 -10.4151 38.1918
rtibia 0
rfoot 0.299238 -32.16
rtoes 13.0712
lfemur -72.3142 16.0126 -20.8341
ltibia 90.6897
lfoot -36.3907 0.669636
ltoes 28.2306
